<svg width="35" height="35" viewBox="0 0 35 35" fill="none" xmlns="http://www.w3.org/2000/svg">
<circle cx="17.5" cy="17.5" r="17.5" fill="#1E94E9"/>
<path d="M10.3906 11.4785C9.83203 11.4069 9.27344 11.3997 8.71484 11.457C8.15625 11.5 7.59766 11.5573 7.03906 11.6289C6.49479 11.7005 5.94336 11.7721 5.38477 11.8438C4.82617 11.901 4.26758 11.9082 3.70898 11.8652C3.55143 11.8509 3.38672 11.8151 3.21484 11.7578C3.05729 11.7005 2.99284 11.5501 3.02148 11.3066C3.03581 11.1491 3.11458 10.9915 3.25781 10.834C3.40104 10.6764 3.55143 10.6048 3.70898 10.6191L10.1758 10.2324C10.1901 10.1608 10.2188 10.0605 10.2617 9.93164C10.3047 9.78841 10.362 9.65234 10.4336 9.52344C10.5052 9.39453 10.5911 9.28711 10.6914 9.20117C10.7917 9.10091 10.9062 9.05794 11.0352 9.07227C11.2214 9.08659 11.3646 9.15104 11.4648 9.26562C11.5794 9.36589 11.6725 9.48047 11.7441 9.60938C11.8158 9.72396 11.8802 9.83138 11.9375 9.93164C11.9948 10.0319 12.0664 10.0892 12.1523 10.1035C14.4583 10.1035 16.8288 10.0605 19.2637 9.97461C19.3066 9.97461 19.4212 9.98177 19.6074 9.99609C19.7936 9.99609 19.9225 10.0033 19.9941 10.0176C20.0801 10.2611 19.987 10.4544 19.7148 10.5977C19.457 10.7266 19.0775 10.8268 18.5762 10.8984C18.0892 10.9701 17.5306 11.0202 16.9004 11.0488C16.2702 11.0775 15.64 11.099 15.0098 11.1133C14.3939 11.1276 13.8066 11.1491 13.248 11.1777C12.7038 11.2064 12.2741 11.2493 11.959 11.3066C11.8444 12.0514 11.7799 12.8535 11.7656 13.7129C11.7513 14.5723 11.7513 15.4603 11.7656 16.377C11.7943 17.2936 11.8372 18.2246 11.8945 19.1699C11.9518 20.1152 12.002 21.0462 12.0449 21.9629C12.1022 22.8796 12.138 23.7676 12.1523 24.627C12.1667 25.4863 12.1452 26.2884 12.0879 27.0332C12.1738 27.4915 12.1309 27.7565 11.959 27.8281C11.8014 27.8854 11.4935 27.8783 11.0352 27.8066C10.9206 27.2194 10.8346 26.5104 10.7773 25.6797C10.7201 24.8346 10.6771 23.9251 10.6484 22.9512C10.6198 21.9629 10.6055 20.946 10.6055 19.9004C10.6055 18.8405 10.5983 17.8021 10.584 16.7852C10.5697 15.7682 10.5482 14.8086 10.5195 13.9062C10.5052 12.9896 10.4622 12.1803 10.3906 11.4785ZM21.0684 10.6621C21.0827 10.4902 21.1257 10.3327 21.1973 10.1895C21.2689 10.0462 21.3548 9.9388 21.4551 9.86719C21.5697 9.78125 21.6842 9.74544 21.7988 9.75977C21.9134 9.75977 22.028 9.82422 22.1426 9.95312C22.1999 9.95312 22.2428 10.0104 22.2715 10.125C22.3145 10.2253 22.3431 10.4186 22.3574 10.7051C22.3717 10.9772 22.3789 11.3568 22.3789 11.8438C22.3932 12.3307 22.4004 12.9538 22.4004 13.7129C22.4004 14.472 22.4004 15.3887 22.4004 16.4629C22.4147 17.5228 22.429 18.7689 22.4434 20.2012C22.5007 20.1009 22.651 19.8503 22.8945 19.4492C23.1523 19.0339 23.4746 18.5326 23.8613 17.9453C24.248 17.3438 24.6777 16.6992 25.1504 16.0117C25.6374 15.3099 26.1315 14.6152 26.6328 13.9277C27.1484 13.2402 27.6569 12.5957 28.1582 11.9941C28.6738 11.3926 29.1465 10.9056 29.5762 10.5332C30.0059 10.1465 30.3854 9.90299 30.7148 9.80273C31.0586 9.68815 31.3092 9.78125 31.4668 10.082C30.2207 11.6862 29.1178 13.0827 28.1582 14.2715C27.1986 15.4603 26.3678 16.5345 25.666 17.4941C24.9785 18.4395 24.3984 19.3132 23.9258 20.1152C23.4674 20.9173 23.1022 21.7337 22.8301 22.5645L31.832 26.9043C31.8034 27.1478 31.7174 27.377 31.5742 27.5918C31.4453 27.8066 31.2233 27.8997 30.9082 27.8711L22.5508 23.9824C22.5938 24.2116 22.6081 24.4909 22.5938 24.8203C22.5938 25.1354 22.5794 25.4648 22.5508 25.8086C22.5365 26.1523 22.5078 26.4818 22.4648 26.7969C22.4219 27.112 22.3932 27.3698 22.3789 27.5703C22.4076 27.8711 22.3001 28.0716 22.0566 28.1719C21.8275 28.2721 21.5983 28.222 21.3691 28.0215L21.0684 10.6621Z" fill="white"/>
</svg>
