<svg width="160" height="160" viewBox="0 0 160 160" fill="none" xmlns="http://www.w3.org/2000/svg">
<g clip-path="url(#clip0_17_1558)">
<path d="M21.0122 117.696C21.0122 117.696 36.6387 137.483 63.34 138.288C90.0413 139.093 113.921 122.448 133.622 109.474C153.323 96.4992 159.785 74.7972 149.951 56.8969C140.117 38.9965 122.264 45.1214 100.825 32.5355C79.3852 19.9493 75.5852 13.3433 50.7305 14.4743C25.8762 15.6056 5.30369 42.1577 6.21 71.9066C7.11631 101.656 21.0122 117.696 21.0122 117.696Z" fill="#C6FF00"/>
<path opacity="0.7" d="M21.0122 117.696C21.0122 117.696 36.6387 137.483 63.34 138.288C90.0413 139.093 113.921 122.448 133.622 109.474C153.323 96.4992 159.785 74.7972 149.951 56.8969C140.117 38.9965 122.264 45.1214 100.825 32.5355C79.3852 19.9493 75.5852 13.3433 50.7305 14.4743C25.8762 15.6056 5.30369 42.1577 6.21 71.9066C7.11631 101.656 21.0122 117.696 21.0122 117.696Z" fill="white"/>
<path d="M25.8685 19.7922C25.8465 19.7945 26.138 18.3508 26.1666 18.2618C26.5007 17.2322 27.7511 15.4381 28.9633 15.4404C29.8367 15.442 30.4283 16.2369 30.342 17.0706C30.2543 17.922 29.4895 18.6477 28.7978 19.0668C27.9862 19.5583 25.8704 19.7918 25.8685 19.7922Z" fill="#C6FF00"/>
<path d="M23.5212 10.0811C24.6622 10.4906 25.2298 12.6021 25.1942 13.6843C25.1911 13.7779 24.975 15.2348 24.9549 15.2251C24.9549 15.2251 24.9363 15.2158 24.9317 15.2135C25.0237 15.546 25.1188 15.9037 25.2147 16.2969C25.386 17.0238 25.5727 17.847 25.7158 18.7564C25.8612 19.6646 25.9934 20.656 26.0383 21.7123C26.085 22.7714 26.08 23.8876 25.9261 25.0371C25.9246 25.0503 25.9211 25.0634 25.9192 25.0766C26.0684 24.7545 26.5166 23.8671 26.5587 23.8029C27.1526 22.8978 28.8322 21.4977 30.001 21.8202C30.8432 22.0526 31.2039 22.9755 30.9004 23.7565C30.5907 24.5546 29.6616 25.0526 28.884 25.2738C28.0071 25.5235 26.0518 25.2285 25.896 25.2046C25.7394 26.298 25.4896 27.4073 25.1753 28.5158C24.9962 29.1499 24.7963 29.7829 24.5876 30.4151C24.7256 30.1405 24.8512 29.8962 24.8725 29.8641C25.4664 28.9589 27.146 27.5593 28.3149 27.8813C29.157 28.1137 29.5174 29.0363 29.2146 29.8177C28.9053 30.6157 27.9758 31.1137 27.1982 31.3353C26.4091 31.5599 24.7368 31.3419 24.2952 31.2785C24.2125 31.5201 24.1328 31.7625 24.0493 32.0038C23.6491 33.1618 23.2443 34.316 22.882 35.4601C22.7541 35.863 22.6431 36.2647 22.5306 36.6664C22.6535 36.4228 22.7591 36.2187 22.7784 36.1893C23.3723 35.2842 25.0519 33.8841 26.2208 34.2066C27.0629 34.4385 27.4236 35.3619 27.1201 36.1433C26.8108 36.941 25.8813 37.4393 25.1037 37.6605C24.3505 37.8747 22.8055 37.6876 22.28 37.6145C22.1772 38.029 22.0735 38.4443 21.9924 38.8506C21.9432 39.1294 21.8767 39.3943 21.8431 39.6769C21.8041 39.9561 21.765 40.2325 21.7267 40.5063C21.6722 41.0364 21.6123 41.5827 21.5721 42.1008C21.5411 42.4612 21.5187 42.8049 21.4947 43.1513C21.6173 42.7485 21.8736 41.9651 21.9026 41.9021C22.2015 41.2479 22.942 40.3075 23.7582 39.7898C23.8019 39.6931 23.8537 39.6003 23.9148 39.513C24.3954 38.8266 25.3632 38.6132 26.0243 39.1839C26.9423 39.9762 26.7126 42.1507 26.2907 43.1475C26.266 43.2062 25.9242 43.8141 25.7027 44.1941C25.867 43.9904 26.024 43.7909 26.196 43.5836C26.5328 43.1711 26.8808 42.7693 27.2539 42.3355C27.4414 42.1325 27.6309 41.9272 27.8223 41.7203C28.0075 41.5108 28.2298 41.3132 28.4347 41.1063C28.92 40.6377 29.4342 40.1861 29.9624 39.7426C29.602 39.4468 28.3365 38.3781 27.9727 37.652C27.6104 36.929 27.3498 35.9074 27.7291 35.1403C28.1003 34.3891 29.0244 34.0314 29.7644 34.4954C30.7918 35.1392 30.8946 37.3237 30.6282 38.3731C30.6116 38.4385 30.3359 39.17 30.177 39.569C30.4967 39.3049 30.8142 39.0397 31.1463 38.7833C32.1048 38.0425 33.0977 37.3226 34.0852 36.5995C34.388 36.3784 34.6865 36.1541 34.9869 35.931C34.8574 35.827 33.3263 34.5893 32.9187 33.7758C32.5564 33.0532 32.2958 32.0313 32.6751 31.2641C33.0463 30.5129 33.9704 30.1552 34.7105 30.6192C35.7378 31.2634 35.8403 33.4476 35.5742 34.4969C35.5541 34.5758 35.1559 35.6279 35.0418 35.8908C35.7022 35.399 36.356 34.9029 36.9809 34.3875C37.8439 33.6776 38.6512 32.9337 39.38 32.1546C39.3197 32.1063 37.7155 30.8218 37.2979 29.9886C36.9356 29.2655 36.675 28.244 37.0543 27.4769C37.4255 26.7256 38.3496 26.368 39.0897 26.832C40.117 27.4761 40.2195 29.6603 39.9534 30.7097C39.936 30.7785 39.6333 31.5812 39.4806 31.959C39.5127 31.9791 39.5069 31.9756 39.539 31.9957C40.3099 31.152 40.9502 30.2376 41.5074 29.3522C41.831 28.8398 42.1121 28.3322 42.3739 27.8322C42.0506 27.6238 40.5837 26.6537 40.1251 25.9454C39.6859 25.2664 39.3147 24.2797 39.607 23.4754C39.8935 22.6878 40.7728 22.2308 41.5592 22.6109C42.6511 23.1383 42.9929 25.2977 42.8437 26.3699C42.8355 26.4283 42.6875 27.0118 42.5738 27.4355C42.6886 27.2082 42.8112 26.9754 42.9167 26.755C43.3158 25.9295 43.6297 25.1489 43.9027 24.4552C44.0546 24.0597 44.1842 23.6989 44.3017 23.3602C44.0914 22.9898 43.262 21.4873 43.1828 20.6626C43.1054 19.8576 43.2311 18.8109 43.8613 18.2317C44.4784 17.6649 45.4694 17.6645 45.9925 18.3639C46.7183 19.3352 46.0266 21.4092 45.4002 22.2923C45.3461 22.3685 44.362 23.4646 44.3508 23.4453C44.3508 23.4453 44.3404 23.4271 44.3381 23.4229C44.2314 23.7511 44.1134 24.1018 43.9765 24.4827C43.7183 25.1837 43.4202 25.9732 43.0378 26.8107C42.6577 27.6486 42.2215 28.5483 41.6764 29.4542C41.1312 30.3632 40.511 31.2916 39.7485 32.1654C39.74 32.1755 39.7296 32.1844 39.7211 32.1944C40.0234 32.0081 40.8864 31.5155 40.9568 31.4853C41.9517 31.0581 44.1246 30.8172 44.9219 31.7304C45.4961 32.3885 45.2877 33.3575 44.6041 33.8419C43.9058 34.3369 42.856 34.2394 42.0851 33.9951C41.2159 33.7194 39.7474 32.3947 39.631 32.2888C38.8971 33.1143 38.077 33.9019 37.2032 34.6531C36.704 35.0831 36.1878 35.5011 35.6655 35.9132C35.9323 35.7605 36.1716 35.626 36.2072 35.6109C37.202 35.1836 39.3754 34.9427 40.1723 35.8564C40.7465 36.5145 40.5381 37.4834 39.8545 37.9679C39.1562 38.4628 38.1064 38.3654 37.3354 38.121C36.5532 37.8728 35.2788 36.7689 34.9455 36.4719C34.7433 36.6282 34.5434 36.7859 34.3404 36.9413C33.3676 37.6864 32.3933 38.4257 31.4603 39.18C31.1312 39.4457 30.8169 39.7194 30.5014 39.992C30.7384 39.8567 30.9391 39.7446 30.9715 39.7306C31.9664 39.3034 34.1398 39.0625 34.9366 39.9762C35.5108 40.6342 35.3024 41.6032 34.6184 42.0877C33.9201 42.5822 32.8704 42.4851 32.0994 42.2408C31.3532 42.0041 30.1677 40.9954 29.7698 40.6447C29.4555 40.9339 29.1396 41.2227 28.8481 41.517C28.6536 41.7227 28.4517 41.9067 28.2677 42.124C28.0809 42.3351 27.8961 42.5443 27.7128 42.7515C27.3749 43.1633 27.0235 43.5863 26.7041 43.9962C26.4794 44.2796 26.271 44.5537 26.0599 44.8298C26.3843 44.5615 27.0304 44.0495 27.0892 44.0128C28.0075 43.4398 30.1194 42.8722 31.0458 43.6548C31.7131 44.2185 31.654 45.2075 31.0512 45.7898C30.436 46.3845 29.3836 46.4475 28.5844 46.323C27.7047 46.1854 26.1125 45.1484 25.9145 45.0177C25.5669 45.4751 25.2333 45.9232 24.9251 46.3513C23.8537 47.8325 23.0174 49.1065 22.4455 50.0051C22.425 50.0372 22.4068 50.0658 22.3875 50.0967L21.6455 49.7368C21.6838 49.6788 21.7209 49.6223 21.7623 49.5605C22.3608 48.6638 23.2327 47.396 24.3474 45.924C24.6985 45.4581 25.0828 44.9674 25.4823 44.4671C25.3794 44.3546 24.7983 43.7112 24.3312 43.0419C23.4794 43.3756 21.7058 43.3887 21.4766 43.3891C21.4391 43.9621 21.4081 44.5201 21.3872 45.0471C21.3107 46.8736 21.3161 48.3978 21.3347 49.4626C21.3354 49.5063 21.3362 49.545 21.3374 49.5871L20.5219 49.1916C20.53 48.1333 20.5621 46.7023 20.67 45.01C20.7056 44.4277 20.7555 43.8063 20.8127 43.1687C20.5865 43.1119 18.7422 42.6383 18.0458 42.0819C17.414 41.5773 16.7494 40.7587 16.7722 39.9031C16.7946 39.0652 17.484 38.3534 18.3501 38.4647C19.5526 38.619 20.561 40.5592 20.7589 41.6237C20.7705 41.6863 20.8212 42.3819 20.8459 42.8211C20.8707 42.5609 20.8916 42.3077 20.9206 42.0397C20.9739 41.51 21.0427 40.9826 21.1147 40.415C21.1591 40.142 21.2036 39.8667 21.2492 39.5883C21.2883 39.3115 21.3644 39.0238 21.4213 38.7385C21.5674 38.08 21.7472 37.4196 21.9432 36.7585C21.4793 36.7105 19.8345 36.5172 19.1304 36.1124C18.4294 35.7091 17.6483 35.0007 17.5416 34.1517C17.4368 33.3204 18.0102 32.5119 18.8837 32.4906C20.0958 32.4612 21.3865 34.2263 21.7433 35.2482C21.7658 35.312 21.9394 36.0741 22.0268 36.4948C22.1478 36.0981 22.2661 35.7017 22.4018 35.3046C22.7923 34.1582 23.2234 33.0095 23.6484 31.8619C23.7787 31.5104 23.9043 31.1586 24.0315 30.8071C23.8664 30.792 21.9061 30.6041 21.1177 30.1506C20.4167 29.7477 19.6361 29.039 19.529 28.1899C19.4242 27.3586 19.9976 26.5501 20.8711 26.5292C22.0832 26.4998 23.3739 28.2649 23.7307 29.2868C23.7574 29.3638 24.006 30.4607 24.0555 30.7429C24.3351 29.9681 24.6069 29.1936 24.8435 28.4196C25.1718 27.3516 25.4343 26.2852 25.6129 25.2339C25.536 25.227 23.4895 25.0406 22.6817 24.5759C21.9808 24.1726 21.1997 23.4642 21.093 22.6152C20.9882 21.7839 21.5616 20.9758 22.4351 20.9545C23.6472 20.9251 24.9379 22.6902 25.2947 23.7121C25.3183 23.7794 25.5082 24.6145 25.5894 25.0143C25.6276 25.0132 25.6203 25.0135 25.6586 25.0124C25.836 23.8838 25.8654 22.7679 25.8418 21.722C25.8295 21.1161 25.7835 20.5377 25.7262 19.9763C25.3415 19.9805 23.583 19.9809 22.8097 19.643C22.0689 19.3193 21.2148 18.7011 21.0149 17.8686C20.8193 17.0536 21.3006 16.1875 22.1663 16.0703C23.3677 15.9079 24.8443 17.5206 25.3114 18.4973C25.3369 18.5503 25.5352 19.1191 25.674 19.5351C25.6443 19.2822 25.6184 19.0205 25.5851 18.7784C25.4622 17.8698 25.294 17.0454 25.1389 16.3166C25.0473 15.9029 24.9564 15.5305 24.8675 15.1829C24.4878 14.9904 22.9671 14.1943 22.4459 13.5501C21.9374 12.9214 21.4646 11.9792 21.671 11.1482C21.8729 10.3328 22.6991 9.78569 23.5212 10.0811Z" fill="#C6FF00"/>
<path d="M45.4385 28.769C44.49 28.7311 42.5962 27.7586 42.5946 27.7583C42.5749 27.7482 43.6142 26.7046 43.6873 26.6463C44.5341 25.9715 46.5663 25.1654 47.5766 25.8358C48.3043 26.3191 48.3592 27.3086 47.8276 27.9562C47.2847 28.6178 46.2462 28.8011 45.4385 28.769Z" fill="#C6FF00"/>
<g opacity="0.5">
<path d="M25.8685 19.7922C25.8465 19.7945 26.138 18.3508 26.1666 18.2618C26.5007 17.2322 27.7511 15.4381 28.9633 15.4404C29.8367 15.442 30.4283 16.2369 30.342 17.0706C30.2543 17.922 29.4895 18.6477 28.7978 19.0668C27.9862 19.5583 25.8704 19.7918 25.8685 19.7922Z" fill="white"/>
<path d="M23.5212 10.0811C24.6622 10.4906 25.2298 12.6021 25.1942 13.6843C25.1911 13.7779 24.975 15.2348 24.9549 15.2251C24.9549 15.2251 24.9363 15.2158 24.9317 15.2135C25.0237 15.546 25.1188 15.9037 25.2147 16.2969C25.386 17.0238 25.5727 17.847 25.7158 18.7564C25.8612 19.6646 25.9934 20.656 26.0383 21.7123C26.085 22.7714 26.08 23.8876 25.9261 25.0371C25.9246 25.0503 25.9211 25.0634 25.9192 25.0766C26.0684 24.7545 26.5166 23.8671 26.5587 23.8029C27.1526 22.8978 28.8322 21.4977 30.001 21.8202C30.8432 22.0526 31.2039 22.9755 30.9004 23.7565C30.5907 24.5546 29.6616 25.0526 28.884 25.2738C28.0071 25.5235 26.0518 25.2285 25.896 25.2046C25.7394 26.298 25.4896 27.4073 25.1753 28.5158C24.9962 29.1499 24.7963 29.7829 24.5876 30.4151C24.7256 30.1405 24.8512 29.8962 24.8725 29.8641C25.4664 28.9589 27.146 27.5593 28.3149 27.8813C29.157 28.1137 29.5174 29.0363 29.2146 29.8177C28.9053 30.6157 27.9758 31.1137 27.1982 31.3353C26.4091 31.5599 24.7368 31.3419 24.2952 31.2785C24.2125 31.5201 24.1328 31.7625 24.0493 32.0038C23.6491 33.1618 23.2443 34.316 22.882 35.4601C22.7541 35.863 22.6431 36.2647 22.5306 36.6664C22.6535 36.4228 22.7591 36.2187 22.7784 36.1893C23.3723 35.2842 25.0519 33.8841 26.2208 34.2066C27.0629 34.4385 27.4236 35.3619 27.1201 36.1433C26.8108 36.941 25.8813 37.4393 25.1037 37.6605C24.3505 37.8747 22.8055 37.6876 22.28 37.6145C22.1772 38.029 22.0735 38.4443 21.9924 38.8506C21.9432 39.1294 21.8767 39.3943 21.8431 39.6769C21.8041 39.9561 21.765 40.2325 21.7267 40.5063C21.6722 41.0364 21.6123 41.5827 21.5721 42.1008C21.5411 42.4612 21.5187 42.8049 21.4947 43.1513C21.6173 42.7485 21.8736 41.9651 21.9026 41.9021C22.2015 41.2479 22.942 40.3075 23.7582 39.7898C23.8019 39.6931 23.8537 39.6003 23.9148 39.513C24.3954 38.8266 25.3632 38.6132 26.0243 39.1839C26.9423 39.9762 26.7126 42.1507 26.2907 43.1475C26.266 43.2062 25.9242 43.8141 25.7027 44.1941C25.867 43.9904 26.024 43.7909 26.196 43.5836C26.5328 43.1711 26.8808 42.7693 27.2539 42.3355C27.4414 42.1325 27.6309 41.9272 27.8223 41.7203C28.0075 41.5108 28.2298 41.3132 28.4347 41.1063C28.92 40.6377 29.4342 40.1861 29.9624 39.7426C29.602 39.4468 28.3365 38.3781 27.9727 37.652C27.6104 36.929 27.3498 35.9074 27.7291 35.1403C28.1003 34.3891 29.0244 34.0314 29.7644 34.4954C30.7918 35.1392 30.8946 37.3237 30.6282 38.3731C30.6116 38.4385 30.3359 39.17 30.177 39.569C30.4967 39.3049 30.8142 39.0397 31.1463 38.7833C32.1048 38.0425 33.0977 37.3226 34.0852 36.5995C34.388 36.3784 34.6865 36.1541 34.9869 35.931C34.8574 35.827 33.3263 34.5893 32.9187 33.7758C32.5564 33.0532 32.2958 32.0313 32.6751 31.2641C33.0463 30.5129 33.9704 30.1552 34.7105 30.6192C35.7378 31.2634 35.8403 33.4476 35.5742 34.4969C35.5541 34.5758 35.1559 35.6279 35.0418 35.8908C35.7022 35.399 36.356 34.9029 36.9809 34.3875C37.8439 33.6776 38.6512 32.9337 39.38 32.1546C39.3197 32.1063 37.7155 30.8218 37.2979 29.9886C36.9356 29.2655 36.675 28.244 37.0543 27.4769C37.4255 26.7256 38.3496 26.368 39.0897 26.832C40.117 27.4761 40.2195 29.6603 39.9534 30.7097C39.936 30.7785 39.6333 31.5812 39.4806 31.959C39.5127 31.9791 39.5069 31.9756 39.539 31.9957C40.3099 31.152 40.9502 30.2376 41.5074 29.3522C41.831 28.8398 42.1121 28.3322 42.3739 27.8322C42.0506 27.6238 40.5837 26.6537 40.1251 25.9454C39.6859 25.2664 39.3147 24.2797 39.607 23.4754C39.8935 22.6878 40.7728 22.2308 41.5592 22.6109C42.6511 23.1383 42.9929 25.2977 42.8437 26.3699C42.8355 26.4283 42.6875 27.0118 42.5738 27.4355C42.6886 27.2082 42.8112 26.9754 42.9167 26.755C43.3158 25.9295 43.6297 25.1489 43.9027 24.4552C44.0546 24.0597 44.1842 23.6989 44.3017 23.3602C44.0914 22.9898 43.262 21.4873 43.1828 20.6626C43.1054 19.8576 43.2311 18.8109 43.8613 18.2317C44.4784 17.6649 45.4694 17.6645 45.9925 18.3639C46.7183 19.3352 46.0266 21.4092 45.4002 22.2923C45.3461 22.3685 44.362 23.4646 44.3508 23.4453C44.3508 23.4453 44.3404 23.4271 44.3381 23.4229C44.2314 23.7511 44.1134 24.1018 43.9765 24.4827C43.7183 25.1837 43.4202 25.9732 43.0378 26.8107C42.6577 27.6486 42.2215 28.5483 41.6764 29.4542C41.1312 30.3632 40.511 31.2916 39.7485 32.1654C39.74 32.1755 39.7296 32.1844 39.7211 32.1944C40.0234 32.0081 40.8864 31.5155 40.9568 31.4853C41.9517 31.0581 44.1246 30.8172 44.9219 31.7304C45.4961 32.3885 45.2877 33.3575 44.6041 33.8419C43.9058 34.3369 42.856 34.2394 42.0851 33.9951C41.2159 33.7194 39.7474 32.3947 39.631 32.2888C38.8971 33.1143 38.077 33.9019 37.2032 34.6531C36.704 35.0831 36.1878 35.5011 35.6655 35.9132C35.9323 35.7605 36.1716 35.626 36.2072 35.6109C37.202 35.1836 39.3754 34.9427 40.1723 35.8564C40.7465 36.5145 40.5381 37.4834 39.8545 37.9679C39.1562 38.4628 38.1064 38.3654 37.3354 38.121C36.5532 37.8728 35.2788 36.7689 34.9455 36.4719C34.7433 36.6282 34.5434 36.7859 34.3404 36.9413C33.3676 37.6864 32.3933 38.4257 31.4603 39.18C31.1312 39.4457 30.8169 39.7194 30.5014 39.992C30.7384 39.8567 30.9391 39.7446 30.9715 39.7306C31.9664 39.3034 34.1398 39.0625 34.9366 39.9762C35.5108 40.6342 35.3024 41.6032 34.6184 42.0877C33.9201 42.5822 32.8704 42.4851 32.0994 42.2408C31.3532 42.0041 30.1677 40.9954 29.7698 40.6447C29.4555 40.9339 29.1396 41.2227 28.8481 41.517C28.6536 41.7227 28.4517 41.9067 28.2677 42.124C28.0809 42.3351 27.8961 42.5443 27.7128 42.7515C27.3749 43.1633 27.0235 43.5863 26.7041 43.9962C26.4794 44.2796 26.271 44.5537 26.0599 44.8298C26.3843 44.5615 27.0304 44.0495 27.0892 44.0128C28.0075 43.4398 30.1194 42.8722 31.0458 43.6548C31.7131 44.2185 31.654 45.2075 31.0512 45.7898C30.436 46.3845 29.3836 46.4475 28.5844 46.323C27.7047 46.1854 26.1125 45.1484 25.9145 45.0177C25.5669 45.4751 25.2333 45.9232 24.9251 46.3513C23.8537 47.8325 23.0174 49.1065 22.4455 50.0051C22.425 50.0372 22.4068 50.0658 22.3875 50.0967L21.6455 49.7368C21.6838 49.6788 21.7209 49.6223 21.7623 49.5605C22.3608 48.6638 23.2327 47.396 24.3474 45.924C24.6985 45.4581 25.0828 44.9674 25.4823 44.4671C25.3794 44.3546 24.7983 43.7112 24.3312 43.0419C23.4794 43.3756 21.7058 43.3887 21.4766 43.3891C21.4391 43.9621 21.4081 44.5201 21.3872 45.0471C21.3107 46.8736 21.3161 48.3978 21.3347 49.4626C21.3354 49.5063 21.3362 49.545 21.3374 49.5871L20.5219 49.1916C20.53 48.1333 20.5621 46.7023 20.67 45.01C20.7056 44.4277 20.7555 43.8063 20.8127 43.1687C20.5865 43.1119 18.7422 42.6383 18.0458 42.0819C17.414 41.5773 16.7494 40.7587 16.7722 39.9031C16.7946 39.0652 17.484 38.3534 18.3501 38.4647C19.5526 38.619 20.561 40.5592 20.7589 41.6237C20.7705 41.6863 20.8212 42.3819 20.8459 42.8211C20.8707 42.5609 20.8916 42.3077 20.9206 42.0397C20.9739 41.51 21.0427 40.9826 21.1147 40.415C21.1591 40.142 21.2036 39.8667 21.2492 39.5883C21.2883 39.3115 21.3644 39.0238 21.4213 38.7385C21.5674 38.08 21.7472 37.4196 21.9432 36.7585C21.4793 36.7105 19.8345 36.5172 19.1304 36.1124C18.4294 35.7091 17.6483 35.0007 17.5416 34.1517C17.4368 33.3204 18.0102 32.5119 18.8837 32.4906C20.0958 32.4612 21.3865 34.2263 21.7433 35.2482C21.7658 35.312 21.9394 36.0741 22.0268 36.4948C22.1478 36.0981 22.2661 35.7017 22.4018 35.3046C22.7923 34.1582 23.2234 33.0095 23.6484 31.8619C23.7787 31.5104 23.9043 31.1586 24.0315 30.8071C23.8664 30.792 21.9061 30.6041 21.1177 30.1506C20.4167 29.7477 19.6361 29.039 19.529 28.1899C19.4242 27.3586 19.9976 26.5501 20.8711 26.5292C22.0832 26.4998 23.3739 28.2649 23.7307 29.2868C23.7574 29.3638 24.006 30.4607 24.0555 30.7429C24.3351 29.9681 24.6069 29.1936 24.8435 28.4196C25.1718 27.3516 25.4343 26.2852 25.6129 25.2339C25.536 25.227 23.4895 25.0406 22.6817 24.5759C21.9808 24.1726 21.1997 23.4642 21.093 22.6152C20.9882 21.7839 21.5616 20.9758 22.4351 20.9545C23.6472 20.9251 24.9379 22.6902 25.2947 23.7121C25.3183 23.7794 25.5082 24.6145 25.5894 25.0143C25.6276 25.0132 25.6203 25.0135 25.6586 25.0124C25.836 23.8838 25.8654 22.7679 25.8418 21.722C25.8295 21.1161 25.7835 20.5377 25.7262 19.9763C25.3415 19.9805 23.583 19.9809 22.8097 19.643C22.0689 19.3193 21.2148 18.7011 21.0149 17.8686C20.8193 17.0536 21.3006 16.1875 22.1663 16.0703C23.3677 15.9079 24.8443 17.5206 25.3114 18.4973C25.3369 18.5503 25.5352 19.1191 25.674 19.5351C25.6443 19.2822 25.6184 19.0205 25.5851 18.7784C25.4622 17.8698 25.294 17.0454 25.1389 16.3166C25.0473 15.9029 24.9564 15.5305 24.8675 15.1829C24.4878 14.9904 22.9671 14.1943 22.4459 13.5501C21.9374 12.9214 21.4646 11.9792 21.671 11.1482C21.8729 10.3328 22.6991 9.78569 23.5212 10.0811Z" fill="white"/>
<path d="M45.4385 28.769C44.49 28.7311 42.5962 27.7586 42.5946 27.7583C42.5749 27.7482 43.6142 26.7046 43.6873 26.6463C44.5341 25.9715 46.5663 25.1654 47.5766 25.8358C48.3043 26.3191 48.3592 27.3086 47.8276 27.9562C47.2847 28.6178 46.2462 28.8011 45.4385 28.769Z" fill="white"/>
</g>
<path d="M34.3756 52.4928C34.3756 52.4928 28.6281 38.6345 25.4092 39.2369C22.1903 39.8393 30.9271 61.3301 30.9271 61.3301C30.9271 61.3301 20.8111 42.2496 13.9137 42.2496C7.01621 42.2496 16.4428 63.3387 25.1791 70.3681C25.1791 70.3681 11.3846 55.5056 3.338 58.719C-4.70898 61.9325 19.4316 76.996 19.4316 76.996C19.4316 76.996 5.40736 72.5774 7.0166 75.9919C8.62584 79.4064 12.9942 80.0088 12.9942 80.0088L16.6941 80.8119H36.7999L39.8935 79.6067C39.8935 79.6067 52.7682 73.1798 49.3197 70.5687C45.8711 67.9577 38.2839 73.5815 38.2839 73.5815C38.2839 73.5815 51.3887 59.1208 48.8596 53.6976C46.3305 48.2748 35.065 63.539 35.065 63.539C35.065 63.539 44.2615 44.0568 42.4222 40.6427C40.5833 37.2282 34.3756 52.4928 34.3756 52.4928Z" fill="#C6FF00"/>
<path opacity="0.4" d="M34.3756 52.4928C34.3756 52.4928 28.6281 38.6345 25.4092 39.2369C22.1903 39.8393 30.9271 61.3301 30.9271 61.3301C30.9271 61.3301 20.8111 42.2496 13.9137 42.2496C7.01621 42.2496 16.4428 63.3387 25.1791 70.3681C25.1791 70.3681 11.3846 55.5056 3.338 58.719C-4.70898 61.9325 19.4316 76.996 19.4316 76.996C19.4316 76.996 5.40736 72.5774 7.0166 75.9919C8.62584 79.4064 12.9942 80.0088 12.9942 80.0088L19.014 80.8119H35.2533L39.8935 79.6067C39.8935 79.6067 52.7682 73.1798 49.3197 70.5687C45.8711 67.9577 38.2839 73.5815 38.2839 73.5815C38.2839 73.5815 51.3887 59.1208 48.8596 53.6976C46.3305 48.2748 35.065 63.539 35.065 63.539C35.065 63.539 44.2615 44.0568 42.4222 40.6427C40.5833 37.2282 34.3756 52.4928 34.3756 52.4928Z" fill="white"/>
<path d="M36.2149 53.2229C31.1572 68.167 31.1572 78.743 31.1572 78.743C31.1572 78.743 37.1348 78.9727 43.3425 74.3746" stroke="#263238" stroke-width="0.5" stroke-miterlimit="10" stroke-linecap="round" stroke-linejoin="round"/>
<path d="M33.6859 61.2698C33.6859 61.2698 32.5364 55.7519 29.5475 48.165" stroke="#263238" stroke-width="0.5" stroke-miterlimit="10" stroke-linecap="round" stroke-linejoin="round"/>
<path d="M18.7418 52.5334L31.6165 71.6158C31.6165 71.6158 40.3532 64.2586 43.3417 60.1203" stroke="#263238" stroke-width="0.5" stroke-miterlimit="10" stroke-linecap="round" stroke-linejoin="round"/>
<path d="M31.3868 76.2138C31.3868 76.2138 17.8223 69.7765 12.3044 66.0979" stroke="#263238" stroke-width="0.5" stroke-miterlimit="10" stroke-linecap="round" stroke-linejoin="round"/>
<path d="M72.2179 21.5535H69.4244V138.048H72.2179V21.5535Z" fill="#C2C2C2" stroke="#ABABAB" stroke-width="0.5" stroke-miterlimit="10" stroke-linecap="round" stroke-linejoin="round"/>
<path d="M21.9328 21.5535H19.1393V138.048H21.9328V21.5535Z" fill="#C2C2C2" stroke="#ABABAB" stroke-width="0.5" stroke-miterlimit="10" stroke-linecap="round" stroke-linejoin="round"/>
<path d="M47.0752 21.5535H44.2816V138.048H47.0752V21.5535Z" fill="#C2C2C2" stroke="#ABABAB" stroke-width="0.5" stroke-miterlimit="10" stroke-linecap="round" stroke-linejoin="round"/>
<path d="M97.3603 21.5535H94.5668V138.048H97.3603V21.5535Z" fill="#C2C2C2" stroke="#ABABAB" stroke-width="0.5" stroke-miterlimit="10" stroke-linecap="round" stroke-linejoin="round"/>
<path d="M96.5224 25.1853H18.2368V30.4932H96.5224V25.1853Z" fill="#C2C2C2" stroke="#ABABAB" stroke-width="0.5" stroke-miterlimit="10" stroke-linecap="round" stroke-linejoin="round"/>
<path d="M96.5225 25.1853H46.1418V30.4932H96.5225V25.1853Z" fill="#A6A6A6" stroke="#ABABAB" stroke-width="0.5" stroke-miterlimit="10" stroke-linecap="round" stroke-linejoin="round"/>
<path d="M96.5224 78.637H18.2368V83.9449H96.5224V78.637Z" fill="#C2C2C2" stroke="#ABABAB" stroke-width="0.5" stroke-miterlimit="10" stroke-linecap="round" stroke-linejoin="round"/>
<path d="M96.5225 78.637H46.1418V83.9449H96.5225V78.637Z" fill="#A6A6A6" stroke="#ABABAB" stroke-width="0.5" stroke-miterlimit="10" stroke-linecap="round" stroke-linejoin="round"/>
<path d="M96.5224 132.089H18.2368V137.397H96.5224V132.089Z" fill="#C2C2C2" stroke="#ABABAB" stroke-width="0.5" stroke-miterlimit="10" stroke-linecap="round" stroke-linejoin="round"/>
<path d="M96.5225 132.089H46.1418V137.397H96.5225V132.089Z" fill="#A6A6A6" stroke="#ABABAB" stroke-width="0.5" stroke-miterlimit="10" stroke-linecap="round" stroke-linejoin="round"/>
<path d="M46.1522 103.589H5.18268V138.004H46.1522V103.589Z" fill="#C6FF00"/>
<mask id="mask0_17_1558" style="mask-type:luminance" maskUnits="userSpaceOnUse" x="5" y="103" width="42" height="36">
<path d="M46.1522 103.589H5.18268V138.004H46.1522V103.589Z" fill="white"/>
</mask>
<g mask="url(#mask0_17_1558)">
<path opacity="0.6" d="M46.1522 103.589H5.18268V138.004H46.1522V103.589Z" fill="white" stroke="#696969" stroke-width="0.5" stroke-miterlimit="10" stroke-linecap="round" stroke-linejoin="round"/>
</g>
<path d="M46.1522 103.589H5.18268V138.004H46.1522V103.589Z" stroke="#696969" stroke-width="0.5" stroke-miterlimit="10" stroke-linecap="round" stroke-linejoin="round"/>
<path d="M46.1526 103.589H32.5394V138.004H46.1526V103.589Z" fill="#C6FF00"/>
<mask id="mask1_17_1558" style="mask-type:luminance" maskUnits="userSpaceOnUse" x="32" y="103" width="15" height="36">
<path d="M46.1526 103.589H32.5394V138.004H46.1526V103.589Z" fill="white"/>
</mask>
<g mask="url(#mask1_17_1558)">
<path opacity="0.39" d="M46.1526 103.589H32.5394V138.004H46.1526V103.589Z" fill="white" stroke="#696969" stroke-width="0.5" stroke-miterlimit="10" stroke-linecap="round" stroke-linejoin="round"/>
</g>
<path d="M46.1526 103.589H32.5394V138.004H46.1526V103.589Z" stroke="#696969" stroke-width="0.5" stroke-miterlimit="10" stroke-linecap="round" stroke-linejoin="round"/>
<path d="M39.4875 103.682V138.048" stroke="#696969" stroke-width="0.5" stroke-miterlimit="10" stroke-linecap="round" stroke-linejoin="round"/>
<path d="M48.22 69.2266H7.25049V103.641H48.22V69.2266Z" fill="#C6FF00"/>
<mask id="mask2_17_1558" style="mask-type:luminance" maskUnits="userSpaceOnUse" x="7" y="69" width="42" height="35">
<path d="M48.22 69.2266H7.25049V103.641H48.22V69.2266Z" fill="white"/>
</mask>
<g mask="url(#mask2_17_1558)">
<path opacity="0.6" d="M48.22 69.2266H7.25049V103.641H48.22V69.2266Z" fill="white" stroke="#696969" stroke-width="0.5" stroke-miterlimit="10" stroke-linecap="round" stroke-linejoin="round"/>
</g>
<path d="M48.22 69.2266H7.25049V103.641H48.22V69.2266Z" stroke="#696969" stroke-width="0.5" stroke-miterlimit="10" stroke-linecap="round" stroke-linejoin="round"/>
<path d="M48.2204 69.2266H34.6072V103.641H48.2204V69.2266Z" fill="#C6FF00"/>
<mask id="mask3_17_1558" style="mask-type:luminance" maskUnits="userSpaceOnUse" x="34" y="69" width="15" height="35">
<path d="M48.2204 69.2266H34.6072V103.641H48.2204V69.2266Z" fill="white"/>
</mask>
<g mask="url(#mask3_17_1558)">
<path opacity="0.39" d="M48.2204 69.2266H34.6072V103.641H48.2204V69.2266Z" fill="white" stroke="#696969" stroke-width="0.5" stroke-miterlimit="10" stroke-linecap="round" stroke-linejoin="round"/>
</g>
<path d="M48.2204 69.2266H34.6072V103.641H48.2204V69.2266Z" stroke="#696969" stroke-width="0.5" stroke-miterlimit="10" stroke-linecap="round" stroke-linejoin="round"/>
<path d="M41.5553 69.3198V103.685" stroke="#696969" stroke-width="0.5" stroke-miterlimit="10" stroke-linecap="round" stroke-linejoin="round"/>
<path d="M154.836 103.589H113.867V138.004H154.836V103.589Z" fill="#C6FF00"/>
<mask id="mask4_17_1558" style="mask-type:luminance" maskUnits="userSpaceOnUse" x="113" y="103" width="42" height="36">
<path d="M154.836 103.589H113.867V138.004H154.836V103.589Z" fill="white"/>
</mask>
<g mask="url(#mask4_17_1558)">
<path opacity="0.6" d="M154.836 103.589H113.867V138.004H154.836V103.589Z" fill="white" stroke="#919191" stroke-width="0.5" stroke-miterlimit="10" stroke-linecap="round" stroke-linejoin="round"/>
</g>
<path d="M154.836 103.589H113.867V138.004H154.836V103.589Z" stroke="#919191" stroke-width="0.5" stroke-miterlimit="10" stroke-linecap="round" stroke-linejoin="round"/>
<path d="M154.836 103.589H141.223V138.004H154.836V103.589Z" fill="#C6FF00"/>
<mask id="mask5_17_1558" style="mask-type:luminance" maskUnits="userSpaceOnUse" x="141" y="103" width="14" height="36">
<path d="M154.836 103.589H141.223V138.004H154.836V103.589Z" fill="white"/>
</mask>
<g mask="url(#mask5_17_1558)">
<path opacity="0.39" d="M154.836 103.589H141.223V138.004H154.836V103.589Z" fill="white" stroke="#919191" stroke-width="0.5" stroke-miterlimit="10" stroke-linecap="round" stroke-linejoin="round"/>
</g>
<path d="M154.836 103.589H141.223V138.004H154.836V103.589Z" stroke="#919191" stroke-width="0.5" stroke-miterlimit="10" stroke-linecap="round" stroke-linejoin="round"/>
<path d="M148.172 103.682V138.048" stroke="#919191" stroke-width="0.5" stroke-miterlimit="10" stroke-linecap="round" stroke-linejoin="round"/>
<path d="M154.836 69.1382H113.867V103.553H154.836V69.1382Z" fill="#C6FF00"/>
<mask id="mask6_17_1558" style="mask-type:luminance" maskUnits="userSpaceOnUse" x="113" y="69" width="42" height="35">
<path d="M154.836 69.1382H113.867V103.553H154.836V69.1382Z" fill="white"/>
</mask>
<g mask="url(#mask6_17_1558)">
<path opacity="0.6" d="M154.836 69.1382H113.867V103.553H154.836V69.1382Z" fill="white" stroke="#919191" stroke-width="0.5" stroke-miterlimit="10" stroke-linecap="round" stroke-linejoin="round"/>
</g>
<path d="M154.836 69.1382H113.867V103.553H154.836V69.1382Z" stroke="#919191" stroke-width="0.5" stroke-miterlimit="10" stroke-linecap="round" stroke-linejoin="round"/>
<path d="M154.836 69.1382H141.223V103.553H154.836V69.1382Z" fill="#C6FF00"/>
<mask id="mask7_17_1558" style="mask-type:luminance" maskUnits="userSpaceOnUse" x="141" y="69" width="14" height="35">
<path d="M154.836 69.1382H141.223V103.553H154.836V69.1382Z" fill="white"/>
</mask>
<g mask="url(#mask7_17_1558)">
<path opacity="0.39" d="M154.836 69.1382H141.223V103.553H154.836V69.1382Z" fill="white" stroke="#919191" stroke-width="0.5" stroke-miterlimit="10" stroke-linecap="round" stroke-linejoin="round"/>
</g>
<path d="M154.836 69.1382H141.223V103.553H154.836V69.1382Z" stroke="#919191" stroke-width="0.5" stroke-miterlimit="10" stroke-linecap="round" stroke-linejoin="round"/>
<path d="M148.172 69.2314V103.597" stroke="#919191" stroke-width="0.5" stroke-miterlimit="10" stroke-linecap="round" stroke-linejoin="round"/>
<path d="M151.237 40.6421H117.347V69.1096H151.237V40.6421Z" fill="#C6FF00"/>
<mask id="mask8_17_1558" style="mask-type:luminance" maskUnits="userSpaceOnUse" x="117" y="40" width="35" height="30">
<path d="M151.237 40.6421H117.347V69.1096H151.237V40.6421Z" fill="white"/>
</mask>
<g mask="url(#mask8_17_1558)">
<path opacity="0.6" d="M151.237 40.6421H117.347V69.1096H151.237V40.6421Z" fill="white" stroke="#919191" stroke-width="0.5" stroke-miterlimit="10" stroke-linecap="round" stroke-linejoin="round"/>
</g>
<path d="M151.237 40.6421H117.347V69.1096H151.237V40.6421Z" stroke="#919191" stroke-width="0.5" stroke-miterlimit="10" stroke-linecap="round" stroke-linejoin="round"/>
<path d="M151.237 40.6421H139.976V69.1096H151.237V40.6421Z" fill="#C6FF00"/>
<mask id="mask9_17_1558" style="mask-type:luminance" maskUnits="userSpaceOnUse" x="139" y="40" width="13" height="30">
<path d="M151.237 40.6421H139.976V69.1096H151.237V40.6421Z" fill="white"/>
</mask>
<g mask="url(#mask9_17_1558)">
<path opacity="0.39" d="M151.237 40.6421H139.976V69.1096H151.237V40.6421Z" fill="white" stroke="#919191" stroke-width="0.5" stroke-miterlimit="10" stroke-linecap="round" stroke-linejoin="round"/>
</g>
<path d="M151.237 40.6421H139.976V69.1096H151.237V40.6421Z" stroke="#919191" stroke-width="0.5" stroke-miterlimit="10" stroke-linecap="round" stroke-linejoin="round"/>
<path d="M145.723 40.719V69.146" stroke="#919191" stroke-width="0.5" stroke-miterlimit="10" stroke-linecap="round" stroke-linejoin="round"/>
<path d="M146.902 125.068H141.592V128.391H146.902V125.068Z" fill="white" stroke="#263238" stroke-width="0.5" stroke-miterlimit="10" stroke-linecap="round" stroke-linejoin="round"/>
<path d="M96.9477 138.048C98.7201 138.048 100.157 136.611 100.157 134.838C100.157 133.066 98.7201 131.629 96.9477 131.629C95.1753 131.629 93.7385 133.066 93.7385 134.838C93.7385 136.611 95.1753 138.048 96.9477 138.048Z" fill="#263238" stroke="#263238" stroke-width="0.5" stroke-miterlimit="10" stroke-linecap="round" stroke-linejoin="round"/>
<path d="M149.759 81.719H147.863V134.91H149.759V81.719Z" fill="#263238" stroke="#263238" stroke-width="0.5" stroke-miterlimit="10" stroke-linecap="round" stroke-linejoin="round"/>
<path d="M148.748 100.325L144.266 96.7621C140.377 93.6716 138.643 88.5609 139.848 83.7424C140.205 82.3153 141.482 81.3181 142.953 81.3181H154.544C156.015 81.3181 157.291 82.3149 157.648 83.7424C158.853 88.5609 157.119 93.6716 153.231 96.7621L148.748 100.325ZM142.953 83.1311C142.315 83.1311 141.762 83.563 141.608 84.182C140.575 88.3126 142.061 92.6934 145.394 95.3427L148.749 98.0091L152.103 95.3427C155.436 92.6934 156.923 88.3126 155.889 84.182C155.735 83.5634 155.182 83.1311 154.544 83.1311H142.953Z" fill="#263238"/>
<path d="M137.622 126.729H78.9561V133.557H137.622V126.729Z" fill="white"/>
<mask id="mask10_17_1558" style="mask-type:luminance" maskUnits="userSpaceOnUse" x="78" y="126" width="60" height="8">
<path d="M137.622 126.729H78.9561V133.557H137.622V126.729Z" fill="white"/>
</mask>
<g mask="url(#mask10_17_1558)">
<path opacity="0.28" d="M137.622 126.729H78.9561V133.557H137.622V126.729Z" fill="black" stroke="#263238" stroke-width="0.5" stroke-miterlimit="10" stroke-linecap="round" stroke-linejoin="round"/>
</g>
<path d="M137.622 126.729H78.9561V133.557H137.622V126.729Z" stroke="#263238" stroke-width="0.5" stroke-miterlimit="10" stroke-linecap="round" stroke-linejoin="round"/>
<path d="M85.5307 126.729H78.9561V133.557H85.5307V126.729Z" stroke="#263238" stroke-width="0.5" stroke-miterlimit="10" stroke-linecap="round" stroke-linejoin="round"/>
<path d="M137.622 126.729H131.047V133.557H137.622V126.729Z" stroke="#263238" stroke-width="0.5" stroke-miterlimit="10" stroke-linecap="round" stroke-linejoin="round"/>
<path d="M111.576 126.729H105.002V133.557H111.576V126.729Z" stroke="#263238" stroke-width="0.5" stroke-miterlimit="10" stroke-linecap="round" stroke-linejoin="round"/>
<path d="M137.622 133.557H141.668L146.725 114.339H142.679L137.622 133.557Z" fill="white" stroke="#263238" stroke-width="0.5" stroke-miterlimit="10" stroke-linecap="round" stroke-linejoin="round"/>
<path d="M151.467 122.431H146.156V131.028H151.467V122.431Z" fill="white" stroke="#263238" stroke-width="0.5" stroke-miterlimit="10" stroke-linecap="round" stroke-linejoin="round"/>
<path d="M147.51 138.047C146.88 138.047 146.369 137.537 146.369 136.906V132.627C146.369 131.997 146.88 131.486 147.51 131.486C148.141 131.486 148.651 131.997 148.651 132.627V136.906C148.651 137.537 148.141 138.047 147.51 138.047Z" fill="#263238"/>
<path d="M150.22 138.047C149.59 138.047 149.079 137.537 149.079 136.906V132.627C149.079 131.997 149.59 131.486 150.22 131.486C150.851 131.486 151.361 131.997 151.361 132.627V136.906C151.361 137.537 150.851 138.047 150.22 138.047Z" fill="#263238"/>
<path d="M0 138.047H160" stroke="#263238" stroke-width="0.5" stroke-miterlimit="10" stroke-linecap="round" stroke-linejoin="round"/>
<path d="M55.1994 149.219C70.6252 149.219 83.1303 147.699 83.1303 145.824C83.1303 143.949 70.6252 142.429 55.1994 142.429C39.7736 142.429 27.2686 143.949 27.2686 145.824C27.2686 147.699 39.7736 149.219 55.1994 149.219Z" fill="#C6FF00"/>
<path opacity="0.5" d="M55.1994 149.219C70.6252 149.219 83.1303 147.699 83.1303 145.824C83.1303 143.949 70.6252 142.429 55.1994 142.429C39.7736 142.429 27.2686 143.949 27.2686 145.824C27.2686 147.699 39.7736 149.219 55.1994 149.219Z" fill="white"/>
<path d="M112.999 145.824C112.999 146.759 106.766 147.517 99.0762 147.517C91.3865 147.517 85.1529 146.759 85.1529 145.824C85.1529 144.89 91.3865 144.132 99.0762 144.132C106.766 144.132 112.999 144.889 112.999 145.824Z" fill="#C6FF00"/>
<path opacity="0.5" d="M112.999 145.824C112.999 146.759 106.766 147.517 99.0762 147.517C91.3865 147.517 85.1529 146.759 85.1529 145.824C85.1529 144.89 91.3865 144.132 99.0762 144.132C106.766 144.132 112.999 144.889 112.999 145.824Z" fill="white"/>
<path d="M60.7629 33.9858C60.7629 33.9858 58.6027 32.2884 56.1339 33.137C53.6652 33.9857 51.7748 38.1133 51.1191 41.469C50.4633 44.8251 47.879 47.3708 48.496 51.3058C49.1131 55.2403 53.5878 55.8574 58.9886 56.4362C64.3889 57.0151 67.3205 56.3593 69.8666 52.8102C72.4127 49.2615 71.3324 44.9411 69.828 41.1222C68.3235 37.3032 65.8161 33.7545 63.7332 33.0988C61.6499 32.443 60.7629 33.9858 60.7629 33.9858Z" fill="#263238" stroke="#263238" stroke-width="0.5" stroke-miterlimit="10" stroke-linecap="round" stroke-linejoin="round"/>
<path d="M51.8398 54.1824C52.4662 54.4623 52.9715 54.5675 52.9715 54.5675" stroke="white" stroke-miterlimit="10" stroke-linecap="round" stroke-linejoin="round"/>
<path d="M60.2305 36.7351C60.2305 36.7351 59.1259 39.4177 56.9166 42.2584C54.7072 45.0988 49.8153 47.7817 49.4998 50.7802C49.3997 51.7317 49.7129 52.4606 50.1869 53.0127" stroke="white" stroke-miterlimit="10" stroke-linecap="round" stroke-linejoin="round"/>
<path d="M69.2039 50.9934C69.0523 51.348 68.8521 51.699 68.5945 52.0424" stroke="white" stroke-miterlimit="10" stroke-linecap="round" stroke-linejoin="round"/>
<path d="M67.3322 43.521C67.3322 43.521 69.8214 46.393 69.5798 49.453" stroke="white" stroke-miterlimit="10" stroke-linecap="round" stroke-linejoin="round"/>
<path d="M59.7573 35.1573C59.7573 35.1573 56.7588 34.684 54.5495 37.2088C54.4629 37.3078 54.3801 37.4079 54.3016 37.5093" stroke="white" stroke-miterlimit="10" stroke-linecap="round" stroke-linejoin="round"/>
<path d="M45.4949 108.034L45.0135 115.474C45.0135 115.474 42.9565 125.452 42.3 129.566C41.6435 133.68 40.4618 139.938 40.243 139.938C40.0242 139.938 36.4793 142.083 35.3414 143.833C34.2035 145.584 35.6477 146.328 37.2233 145.759C38.7989 145.19 40.9432 143.614 41.6434 141.732C42.3437 139.85 42.694 139.15 42.7377 138.844C42.7814 138.538 50.2654 118.449 51.0093 116.305C51.7532 114.161 53.3288 107.858 53.3288 107.858L57.0051 95.3852C57.0051 95.3852 60.9439 108.208 60.9876 108.777C61.0313 109.346 65.0579 142.126 65.2326 143.352C65.4078 144.577 65.3641 145.452 66.108 145.715C66.8519 145.977 68.6027 145.977 69.5217 145.977C70.4408 145.977 73.6357 146.459 75.2113 146.065C76.7869 145.671 76.9621 145.408 75.8679 144.621C74.7736 143.833 68.6955 143.328 68.1213 141.032C68.0776 140.856 68.0339 107.114 68.0339 107.114C68.0339 107.114 67.5088 95.9539 66.6335 92.8027H46.414L45.4949 108.034Z" fill="white" stroke="#263238" stroke-width="0.5" stroke-miterlimit="10" stroke-linecap="round" stroke-linejoin="round"/>
<path d="M37.2233 145.759C38.7989 145.19 40.9432 143.615 41.6434 141.733C41.6949 141.595 41.7436 141.465 41.7912 141.339C40.8988 142.291 39.455 143.614 39.455 143.614C39.455 143.614 39.3239 142.871 38.8862 142.389C38.4486 141.908 37.8798 142.083 37.8798 142.083L39.4098 140.383C38.2359 141.103 36.1623 142.57 35.3414 143.833C34.2035 145.584 35.6477 146.328 37.2233 145.759Z" fill="#263238" stroke="#263238" stroke-width="0.5" stroke-miterlimit="10" stroke-linecap="round" stroke-linejoin="round"/>
<path d="M75.8679 144.621C75.1189 144.082 72.0358 143.675 69.9799 142.736C69.8964 142.811 69.8257 142.899 69.7847 143.002C69.6095 143.44 69.4785 144.14 69.4785 144.14L65.2168 143.231C65.2238 143.283 65.2296 143.327 65.233 143.352C65.4082 144.578 65.3641 145.453 66.1084 145.716C66.8523 145.978 68.6031 145.978 69.5222 145.978C70.4412 145.978 73.6361 146.46 75.2117 146.066C76.7869 145.672 76.9617 145.409 75.8679 144.621Z" fill="#263238" stroke="#263238" stroke-width="0.5" stroke-miterlimit="10" stroke-linecap="round" stroke-linejoin="round"/>
<path d="M51.3889 74.6824C51.3889 74.6824 49.383 75.608 46.9529 79.9671C44.2982 84.7287 44.754 87.3734 44.7157 93.121C44.6771 98.8685 44.5615 108.397 44.5615 108.397C44.5615 108.397 51.8908 110.364 57.1756 110.056C62.4603 109.747 69.1339 108.551 69.1339 108.551C69.1339 108.551 67.7068 89.1095 66.3566 83.5162C65.0064 77.9229 64.1964 75.4155 64.1964 75.4155C64.1964 75.4155 60.802 75.9939 56.3272 75.5311C51.8521 75.0682 51.3889 74.6824 51.3889 74.6824Z" fill="#263238" stroke="#263238" stroke-width="0.5" stroke-miterlimit="10" stroke-linecap="round" stroke-linejoin="round"/>
<path d="M59.8391 91.8601C60.0402 92.5224 60.2254 93.1921 60.3885 93.8614" stroke="white" stroke-miterlimit="10" stroke-linecap="round" stroke-linejoin="round"/>
<path d="M55.1808 80.9214C55.1808 80.9214 57.45 84.9669 59.1803 89.8588" stroke="white" stroke-miterlimit="10" stroke-linecap="round" stroke-linejoin="round"/>
<path d="M100.642 70.9714C100.41 70.8171 96.612 70.2205 96.612 70.2205L95.8681 69.9142C95.8681 69.9142 100.468 70.2823 100.507 70.0894C100.546 69.8965 100.7 69.6653 100.392 69.6266C100.083 69.5879 94.1614 68.3827 94.1614 68.3827C94.1614 68.3827 95.6659 66.9599 95.8588 66.6513C96.0518 66.3428 96.3216 65.7257 96.0131 65.7257C95.7045 65.7257 95.6272 65.9186 95.2031 66.1885C94.7789 66.4584 93.1202 67.1141 92.657 67.5C92.1941 67.8859 90.8053 68.8889 90.8053 68.8889L74.7295 66.676C74.7295 66.676 69.0836 59.7175 67.8583 58.2293C66.633 56.7414 64.9697 55.6035 64.9697 55.6035C63.7881 55.0785 63.8318 55.9538 63.8318 55.9538L66.2827 66.939C66.2827 66.939 72.6725 70.7467 73.0661 70.7467C73.4601 70.7467 90.728 71.3193 90.728 71.3193C90.728 71.3193 91.8852 71.8595 92.6183 72.3223C93.3514 72.7851 97.98 74.2509 97.98 74.2509C97.98 74.2509 98.2885 74.0967 97.9413 73.8268C97.5941 73.5569 95.3569 72.4766 95.3569 72.4766L99.9859 73.4796C99.9859 73.4796 100.256 73.2866 100.14 73.0937C100.025 72.9007 95.8971 71.3193 95.8971 71.3193L100.526 71.5509C100.526 71.5502 100.874 71.1256 100.642 70.9714Z" fill="white" stroke="#263238" stroke-width="0.5" stroke-miterlimit="10" stroke-linecap="round" stroke-linejoin="round"/>
<path d="M73.7605 65.4814C72.0917 63.4256 68.7657 59.3302 67.8586 58.229C66.6333 56.7412 64.97 55.6033 64.97 55.6033C63.7884 55.0782 63.8321 55.9536 63.8321 55.9536L66.283 66.9387C66.283 66.9387 69.1663 68.6566 71.1788 69.7849L73.7605 65.4814Z" fill="white" stroke="#263238" stroke-width="0.5" stroke-miterlimit="10" stroke-linecap="round" stroke-linejoin="round"/>
<path d="M56.6738 54.662C56.6738 54.662 53.3176 54.8163 51.2734 57.0921C49.2292 59.3679 49.4604 64.3828 50.3091 67.3917C51.1578 70.4006 52.2377 72.0594 52.0065 73.101C51.7749 74.1426 50.9266 74.4899 51.3894 75.4542C51.8522 76.4185 54.5139 77.4601 59.2202 77.3058C63.9262 77.1516 64.8135 76.1486 64.8522 75.2612C64.8909 74.3739 64.5436 73.6412 64.6593 73.101C64.7749 72.5609 68.1697 69.5523 68.1697 66.2349C68.1697 62.9174 66.7039 61.7601 66.3566 59.3687C66.0094 56.9769 66.125 56.6301 64.6979 55.5884C63.27 54.5464 58.5641 54.0062 56.6738 54.662Z" fill="white" stroke="#263238" stroke-width="0.5" stroke-miterlimit="10" stroke-linecap="round" stroke-linejoin="round"/>
<path d="M55.1511 66.178C55.1511 66.178 53.3006 67.7509 51.4505 68.4909" stroke="#263238" stroke-width="0.5" stroke-miterlimit="10" stroke-linecap="round" stroke-linejoin="round"/>
<path d="M55.5215 66.5481C55.5215 66.5481 54.6887 69.2311 52.6533 70.7115" stroke="#263238" stroke-width="0.5" stroke-miterlimit="10" stroke-linecap="round" stroke-linejoin="round"/>
<path d="M63.8488 57.092L64.2347 60.7954L62.6143 58.905L63.8488 57.092Z" fill="white" stroke="#263238" stroke-width="0.5" stroke-miterlimit="10" stroke-linecap="round" stroke-linejoin="round"/>
<path d="M61.6886 61.1039L63.8488 57.092L61.8815 54.9705L61.6886 61.1039Z" fill="white" stroke="#263238" stroke-width="0.5" stroke-miterlimit="10" stroke-linecap="round" stroke-linejoin="round"/>
<path d="M57.5225 48.1042C57.5225 48.1042 58.1013 50.3031 58.0239 52.1931C57.9466 54.083 57.7541 54.8548 57.7541 54.8548L61.6886 61.1038L62.8072 55.3176L63.5403 51.3057C63.5403 51.3057 59.0656 51.0358 57.5225 48.1042Z" fill="white" stroke="#263238" stroke-width="0.5" stroke-miterlimit="10" stroke-linecap="round" stroke-linejoin="round"/>
<path d="M61.457 57.7478L61.6886 61.1039L60.5314 59.2909L61.457 57.7478Z" fill="white" stroke="#263238" stroke-width="0.5" stroke-miterlimit="10" stroke-linecap="round" stroke-linejoin="round"/>
<path d="M56.4425 54.7006L60.0299 61.1426L61.457 57.7478L57.6384 52.5017L56.4425 54.7006Z" fill="white" stroke="#263238" stroke-width="0.5" stroke-miterlimit="10" stroke-linecap="round" stroke-linejoin="round"/>
<path d="M119.304 57.7041H86.7432V84.4228H119.304V57.7041Z" fill="#C6FF00"/>
<mask id="mask11_17_1558" style="mask-type:luminance" maskUnits="userSpaceOnUse" x="86" y="57" width="34" height="28">
<path d="M119.304 57.7041H86.7432V84.4228H119.304V57.7041Z" fill="white"/>
</mask>
<g mask="url(#mask11_17_1558)">
<path opacity="0.2" d="M119.304 57.7041H86.7432V84.4228H119.304V57.7041Z" fill="black"/>
</g>
<path d="M119.304 57.7041H86.7432V84.4228H119.304V57.7041Z" stroke="#263238" stroke-width="0.5" stroke-miterlimit="10" stroke-linecap="round" stroke-linejoin="round"/>
<path d="M112.411 57.7041H79.8503V84.4228H112.411V57.7041Z" fill="#C6FF00" stroke="#263238" stroke-width="0.5" stroke-miterlimit="10" stroke-linecap="round" stroke-linejoin="round"/>
<path d="M124.666 93.4164C123.623 91.7607 119.305 84.4229 119.305 84.4229H112.412L115.959 93.4164H124.666Z" fill="#C6FF00"/>
<mask id="mask12_17_1558" style="mask-type:luminance" maskUnits="userSpaceOnUse" x="112" y="84" width="13" height="10">
<path d="M124.666 93.4164C123.623 91.7607 119.305 84.4229 119.305 84.4229H112.412L115.959 93.4164H124.666Z" fill="white"/>
</mask>
<g mask="url(#mask12_17_1558)">
<path opacity="0.2" d="M124.666 93.4164C123.623 91.7607 119.305 84.4229 119.305 84.4229H112.412L115.959 93.4164H124.666Z" fill="black"/>
</g>
<path d="M124.666 93.4164C123.623 91.7607 119.305 84.4229 119.305 84.4229H112.412L115.959 93.4164H124.666Z" stroke="#263238" stroke-width="0.5" stroke-miterlimit="10" stroke-linecap="round" stroke-linejoin="round"/>
<path d="M74.4674 93.4164C75.5102 91.7607 79.8283 84.4229 79.8283 84.4229H86.7211L83.1744 93.4164H74.4674Z" fill="#C6FF00" stroke="#263238" stroke-width="0.5" stroke-miterlimit="10" stroke-linecap="round" stroke-linejoin="round"/>
<path d="M79.8283 84.4226L76.8306 93.4165H110.836L112.411 84.4226H79.8283Z" fill="#C6FF00" stroke="#263238" stroke-width="0.5" stroke-miterlimit="10" stroke-linecap="round" stroke-linejoin="round"/>
<path d="M123.494 67.373V76.3178" stroke="#263238" stroke-width="0.5" stroke-miterlimit="10" stroke-linecap="round" stroke-linejoin="round"/>
<path d="M125.186 71.2412V78.494" stroke="#263238" stroke-width="0.5" stroke-miterlimit="10" stroke-linecap="round" stroke-linejoin="round"/>
<path d="M76.3508 76.3179V81.8783" stroke="#263238" stroke-width="0.5" stroke-miterlimit="10" stroke-linecap="round" stroke-linejoin="round"/>
<path d="M74.9005 79.4609V83.8127" stroke="#263238" stroke-width="0.5" stroke-miterlimit="10" stroke-linecap="round" stroke-linejoin="round"/>
<path d="M51.0804 64.2672C51.0804 64.2672 52.7392 66.2345 55.0537 67.6233C57.3682 69.0122 65.893 73.8337 66.5488 74.104C67.2046 74.3739 87.5335 71.0564 87.5335 71.0564C87.5335 71.0564 88.6907 71.5966 89.4238 72.0594C90.1569 72.5222 94.7859 73.988 94.7859 73.988C94.7859 73.988 95.0945 73.8337 94.7472 73.5638C94.4 73.294 92.1629 72.2137 92.1629 72.2137L96.7919 73.2166C96.7919 73.2166 97.0617 73.0237 96.9461 72.8308C96.8305 72.6378 92.703 71.0564 92.703 71.0564L97.332 71.2876C97.332 71.2876 97.6792 70.8635 97.4476 70.7092C97.216 70.5549 92.4714 69.4746 92.4714 69.4746C92.4714 69.4746 97.5246 69.0505 97.5632 68.8575C97.6019 68.6646 97.7562 68.433 97.4476 68.3947C97.1391 68.356 90.8127 67.7389 90.8127 67.7389C90.8127 67.7389 92.4714 66.6973 92.6644 66.3888C92.8573 66.0802 93.1272 65.4631 92.8186 65.4631C92.5101 65.4631 92.4327 65.6561 92.0086 65.9259C91.5844 66.1958 89.9257 66.8516 89.4625 67.2375C88.9997 67.6233 87.6108 68.6263 87.6108 68.6263L69.018 68.665L57.4842 59.5613" fill="white"/>
<path d="M51.0804 64.2672C51.0804 64.2672 52.7392 66.2345 55.0537 67.6233C57.3682 69.0122 65.893 73.8337 66.5488 74.104C67.2046 74.3739 87.5335 71.0564 87.5335 71.0564C87.5335 71.0564 88.6907 71.5966 89.4238 72.0594C90.1569 72.5222 94.7859 73.988 94.7859 73.988C94.7859 73.988 95.0945 73.8337 94.7472 73.5638C94.4 73.294 92.1629 72.2137 92.1629 72.2137L96.7918 73.2166C96.7918 73.2166 97.0617 73.0237 96.9461 72.8308C96.8305 72.6378 92.703 71.0564 92.703 71.0564L97.332 71.2876C97.332 71.2876 97.6792 70.8635 97.4476 70.7092C97.216 70.5549 92.4714 69.4746 92.4714 69.4746C92.4714 69.4746 97.5246 69.0505 97.5632 68.8575C97.6019 68.6646 97.7562 68.433 97.4476 68.3947C97.1391 68.356 90.8127 67.7389 90.8127 67.7389C90.8127 67.7389 92.4714 66.6973 92.6644 66.3888C92.8573 66.0802 93.1272 65.4631 92.8186 65.4631C92.5101 65.4631 92.4327 65.6561 92.0086 65.9259C91.5844 66.1958 89.9257 66.8516 89.4625 67.2375C88.9997 67.6233 87.6108 68.6263 87.6108 68.6263L69.018 68.665L57.4842 59.5613" stroke="#263238" stroke-width="0.5" stroke-miterlimit="10" stroke-linecap="round" stroke-linejoin="round"/>
<path d="M97.4472 68.3947C97.1387 68.3561 90.8123 67.739 90.8123 67.739C90.8123 67.739 92.471 66.6973 92.664 66.3888C92.8569 66.0802 93.1268 65.4631 92.8183 65.4631C92.5097 65.4631 92.4324 65.6561 92.0082 65.926C91.5841 66.1958 89.9253 66.8516 89.4621 67.2375C88.9993 67.6233 87.6105 68.6263 87.6105 68.6263L69.0176 68.665L66.9467 67.0302C66.1579 68.3866 64.7265 70.9315 63.7862 72.6092C65.2338 73.4162 66.3304 74.0139 66.5492 74.104C67.205 74.3739 87.5339 71.0564 87.5339 71.0564C87.5339 71.0564 88.6911 71.5966 89.4242 72.0594C90.1573 72.5222 94.7863 73.988 94.7863 73.988C94.7863 73.988 95.0949 73.8337 94.7476 73.5639C94.4004 73.294 92.1633 72.2137 92.1633 72.2137L96.7923 73.2166C96.7923 73.2166 97.0621 73.0237 96.9465 72.8308C96.8309 72.6378 92.7034 71.0564 92.7034 71.0564L97.3324 71.288C97.3324 71.288 97.6796 70.8635 97.448 70.7092C97.2164 70.5549 92.4718 69.475 92.4718 69.475C92.4718 69.475 97.525 69.0509 97.5636 68.8579C97.6019 68.6646 97.7562 68.4334 97.4472 68.3947Z" fill="white" stroke="#263238" stroke-width="0.5" stroke-miterlimit="10" stroke-linecap="round" stroke-linejoin="round"/>
<path d="M66.3176 44.8639C66.3176 44.7483 67.0889 44.3624 67.2819 45.0955C67.4748 45.8286 67.0889 47.0628 66.6648 47.4873C66.2406 47.9119 65.8547 48.0275 65.8547 47.4873C65.8547 46.9472 66.3176 44.8639 66.3176 44.8639Z" fill="white" stroke="#263238" stroke-width="0.5" stroke-miterlimit="10" stroke-linecap="round" stroke-linejoin="round"/>
<path d="M61.5684 38.104C61.5684 38.104 61.4926 40.9791 59.2987 43.0976C57.1045 45.2161 55.1376 46.1997 55.1376 46.1997C55.1376 46.1997 55.3645 47.4103 55.8185 47.7884C56.2724 48.1666 57.1803 48.0912 57.1803 48.0912C57.1803 48.0912 57.8611 50.2097 59.6769 51.8742C61.4926 53.5387 63.611 53.3875 64.8216 50.8905C66.0322 48.3939 66.6373 45.897 66.4862 44.4594C66.335 43.0218 66.335 43.0218 66.335 43.0218C66.335 43.0218 62.4004 40.8276 61.5684 38.104Z" fill="white" stroke="#263238" stroke-width="0.5" stroke-miterlimit="10" stroke-linecap="round" stroke-linejoin="round"/>
<path d="M61.3398 45.5809C61.5316 45.5809 61.687 45.3046 61.687 44.9638C61.687 44.623 61.5316 44.3467 61.3398 44.3467C61.1481 44.3467 60.9926 44.623 60.9926 44.9638C60.9926 45.3046 61.1481 45.5809 61.3398 45.5809Z" fill="#263238"/>
<path d="M63.2298 50.5186C63.4215 50.5186 63.577 50.2423 63.577 49.9015C63.577 49.5607 63.4215 49.2844 63.2298 49.2844C63.038 49.2844 62.8826 49.5607 62.8826 49.9015C62.8826 50.2423 63.038 50.5186 63.2298 50.5186Z" fill="#263238"/>
<path d="M64.6955 45.5809C64.8873 45.5809 65.0428 45.3046 65.0428 44.9638C65.0428 44.623 64.8873 44.3467 64.6955 44.3467C64.5038 44.3467 64.3483 44.623 64.3483 44.9638C64.3483 45.3046 64.5038 45.5809 64.6955 45.5809Z" fill="#263238"/>
<path d="M64.0015 44.3081C64.0015 44.3081 63.7699 45.0795 63.8859 45.7352C64.0015 46.391 64.5417 47.5096 64.0789 47.7025C63.616 47.8955 62.9986 47.8181 62.7673 47.5482" stroke="#263238" stroke-width="0.5" stroke-miterlimit="10" stroke-linecap="round" stroke-linejoin="round"/>
<path d="M60.3365 43.8492C60.3365 43.8492 60.519 42.6629 62.0702 42.7998" stroke="#263238" stroke-width="0.5" stroke-miterlimit="10" stroke-linecap="round" stroke-linejoin="round"/>
<path d="M64.4887 43.1648C64.4887 43.1648 65.934 42.0002 66.403 44.1241" stroke="#263238" stroke-width="0.5" stroke-miterlimit="10" stroke-linecap="round" stroke-linejoin="round"/>
</g>
<defs>
<clipPath id="clip0_17_1558">
<rect width="160" height="160" fill="white"/>
</clipPath>
</defs>
</svg>
